<svg xmlns="http://www.w3.org/2000/svg" xmlns:xlink="http://www.w3.org/1999/xlink" width="4000" zoomAndPan="magnify" viewBox="0 0 3000 2999.999989" height="4000" preserveAspectRatio="xMidYMid meet" version="1.0"><path stroke-linecap="round" transform="matrix(9.347655, 0, 0, 9.345794, 700.911838, -93.457842)" fill-opacity="1" fill="#000000" fill-rule="evenodd" stroke-linejoin="round" d="M 117.31994 56.608939 C 134.894118 78.087936 134.894118 112.911839 117.31994 134.390835 C 99.74618 155.869832 71.25516 155.869832 53.680982 134.390835 C 36.106805 112.911839 36.106805 78.087936 53.680982 56.608939 C 71.25516 35.129943 99.747016 35.129943 117.31994 56.608939 Z M 117.31994 56.608939 " stroke="#000000" stroke-width="1" stroke-opacity="1" stroke-miterlimit="1"/><path stroke-linecap="round" transform="matrix(9.347655, 0, 0, 9.345794, 700.911838, -93.457842)" fill-opacity="1" fill="#000000" fill-rule="evenodd" stroke-linejoin="round" d="M 155.500055 330.500105 L 15.500032 330.500105 C 12.739062 330.500105 10.500031 328.261882 10.500031 325.499944 L 10.500031 315.500042 C 10.500031 312.738104 12.739062 310.499882 15.500032 310.499882 L 155.500055 310.499882 C 158.261861 310.499882 160.500056 312.738104 160.500056 315.500042 L 160.500056 325.499944 C 160.500056 328.261882 158.261861 330.500105 155.500055 330.500105 Z M 155.500055 330.500105 " stroke="#000000" stroke-width="1" stroke-opacity="1" stroke-miterlimit="1"/><path stroke-linecap="round" transform="matrix(9.347655, 0, 0, 9.345794, 700.911838, -93.457842)" fill-opacity="1" fill="#000000" fill-rule="evenodd" stroke-linejoin="round" d="M 145.500053 310.499882 L 25.500033 310.499882 C 22.739063 310.499882 20.500032 308.262077 20.500032 305.500139 L 20.500032 285.499916 C 20.500032 282.737979 22.739063 280.500174 25.500033 280.500174 L 145.500053 280.500174 C 148.261859 280.500174 150.500054 282.737979 150.500054 285.499916 L 150.500054 305.500139 C 150.500054 308.262077 148.261859 310.499882 145.500053 310.499882 Z M 145.500053 310.499882 " stroke="#000000" stroke-width="1" stroke-opacity="1" stroke-miterlimit="1"/><path stroke-linecap="round" transform="matrix(9.347655, 0, 0, 9.345794, 700.911838, -93.457842)" fill-opacity="1" fill="#000000" fill-rule="evenodd" stroke-linejoin="round" d="M 135.500052 280.500174 L 35.500035 280.500174 C 32.739065 280.500174 30.500034 278.261951 30.500034 275.500014 C 30.500034 272.738076 32.739065 270.499854 35.500035 270.499854 L 135.500052 270.499854 C 138.261857 270.499854 140.500052 272.738076 140.500052 275.500014 C 140.500052 278.261951 138.261857 280.500174 135.500052 280.500174 Z M 135.500052 280.500174 " stroke="#000000" stroke-width="1" stroke-opacity="1" stroke-miterlimit="1"/><path stroke-linecap="round" transform="matrix(9.347655, 0, 0, 9.345794, 700.911838, -93.457842)" fill-opacity="1" fill="#000000" fill-rule="evenodd" stroke-linejoin="round" d="M 135.500052 190.499797 L 35.500035 190.499797 C 32.739065 190.499797 30.500034 188.261993 30.500034 185.500055 L 30.500034 175.500153 C 30.500034 172.738215 32.739065 170.499992 35.500035 170.499992 L 135.500052 170.499992 C 138.261857 170.499992 140.500052 172.738215 140.500052 175.500153 L 140.500052 185.500055 C 140.500052 188.261993 138.261857 190.499797 135.500052 190.499797 Z M 135.500052 190.499797 " stroke="#000000" stroke-width="1" stroke-opacity="1" stroke-miterlimit="1"/><path stroke-linecap="round" transform="matrix(9.347655, 0, 0, 9.345794, 700.911838, -93.457842)" fill-opacity="1" fill="#000000" fill-rule="evenodd" stroke-linejoin="round" d="M 125.50005 170.499992 L 45.500037 170.499992 C 42.739067 170.499992 40.500036 168.260934 40.500036 165.499832 C 40.500036 162.739148 42.739067 160.50009 45.500037 160.50009 L 125.50005 160.50009 C 128.261856 160.50009 130.500051 162.739148 130.500051 165.499832 C 130.500051 168.260934 128.261856 170.499992 125.50005 170.499992 Z M 125.50005 170.499992 " stroke="#000000" stroke-width="1" stroke-opacity="1" stroke-miterlimit="1"/><path stroke-linecap="round" transform="matrix(9.347655, 0, 0, 9.345794, 700.911838, -93.457842)" fill-opacity="1" fill="#000000" fill-rule="evenodd" stroke-linejoin="round" d="M 115.500048 160.50009 L 55.500038 160.50009 C 52.739068 160.50009 50.500037 158.261031 50.500037 155.49993 C 50.500037 152.738828 52.739068 150.500187 55.500038 150.500187 L 115.500048 150.500187 C 118.261854 150.500187 120.500049 152.738828 120.500049 155.49993 C 120.500049 158.261031 118.261854 160.50009 115.500048 160.50009 Z M 115.500048 160.50009 " stroke="#000000" stroke-width="1" stroke-opacity="1" stroke-miterlimit="1"/><path stroke-linecap="round" transform="matrix(9.347655, 0, 0, 9.345794, 700.911838, -93.457842)" fill-opacity="1" fill="#000000" fill-rule="evenodd" stroke-linejoin="round" d="M 115.500048 150.500187 L 55.500038 150.500187 C 52.739068 150.500187 50.500037 148.261129 50.500037 145.500027 C 50.500037 142.738925 52.739068 140.499867 55.500038 140.499867 L 115.500048 140.499867 C 118.261854 140.499867 120.500049 142.738925 120.500049 145.500027 C 120.500049 148.261129 118.261854 150.500187 115.500048 150.500187 Z M 115.500048 150.500187 " stroke="#000000" stroke-width="1" stroke-opacity="1" stroke-miterlimit="1"/><path stroke-linecap="round" transform="matrix(9.347655, 0, 0, 9.345794, 700.911838, -93.457842)" fill-opacity="1" fill="#000000" fill-rule="evenodd" stroke-linejoin="round" d="M 124.749945 280.500174 L 44.749932 280.500174 C 41.988962 280.500174 40.085911 278.261951 40.500036 275.500014 L 53.999829 185.500055 C 54.413954 182.738118 56.988965 180.499895 59.749935 180.499895 L 109.749943 180.499895 C 112.512166 180.499895 115.085924 182.738118 115.500048 185.500055 L 128.999842 275.500014 C 129.413966 278.261951 127.512169 280.500174 124.749945 280.500174 Z M 124.749945 280.500174 " stroke="#000000" stroke-width="1" stroke-opacity="1" stroke-miterlimit="1"/><path stroke-linecap="round" transform="matrix(9.347655, 0, 0, 9.345794, 700.911838, -93.457842)" fill-opacity="1" fill="#000000" fill-rule="evenodd" stroke-linejoin="round" d="M 95.500045 50.499908 L 75.500042 50.499908 C 72.739072 50.499908 70.500041 48.260849 70.500041 45.500166 L 70.500041 15.50004 C 70.500041 12.738939 72.739072 10.49988 75.500042 10.49988 L 95.500045 10.49988 C 98.261851 10.49988 100.500046 12.738939 100.500046 15.50004 L 100.500046 45.500166 C 100.500046 48.260849 98.261851 50.499908 95.500045 50.499908 Z M 95.500045 50.499908 " stroke="#000000" stroke-width="1" stroke-opacity="1" stroke-miterlimit="1"/></svg>