<svg xmlns="http://www.w3.org/2000/svg" xmlns:xlink="http://www.w3.org/1999/xlink" width="4000" zoomAndPan="magnify" viewBox="0 0 3000 2999.999989" height="4000" preserveAspectRatio="xMidYMid meet" version="1.0"><defs><clipPath id="e47ef6b95c"><path d="M 905.453125 2834 L 2094.203125 2834 L 2094.203125 3000 L 905.453125 3000 Z M 905.453125 2834 " clip-rule="nonzero"/></clipPath></defs><path fill="#000000" d="M 2050.851562 2996.0625 L 948.804688 2996.0625 C 927.070312 2996.0625 909.445312 2978.441406 909.445312 2956.691406 L 909.445312 2877.953125 C 909.445312 2856.203125 927.070312 2838.582031 948.804688 2838.582031 L 2050.851562 2838.582031 C 2072.59375 2838.582031 2090.210938 2856.203125 2090.210938 2877.953125 L 2090.210938 2956.691406 C 2090.210938 2978.441406 2072.59375 2996.0625 2050.851562 2996.0625 Z M 2050.851562 2996.0625 " fill-opacity="1" fill-rule="evenodd"/><g clip-path="url(#e47ef6b95c)"><path stroke-linecap="round" transform="matrix(7.871765, 0, 0, 7.874015, 826.793584, -78.740052)" fill="none" stroke-linejoin="round" d="M 155.499809 390.499941 L 15.49984 390.499941 C 12.738786 390.499941 10.499771 388.262062 10.499771 385.499812 L 10.499771 375.50005 C 10.499771 372.7378 12.738786 370.499921 15.49984 370.499921 L 155.499809 370.499921 C 158.261856 370.499921 160.499879 372.7378 160.499879 375.50005 L 160.499879 385.499812 C 160.499879 388.262062 158.261856 390.499941 155.499809 390.499941 Z M 155.499809 390.499941 " stroke="#000000" stroke-width="1" stroke-opacity="1" stroke-miterlimit="1"/></g><path stroke-linecap="round" transform="matrix(7.871765, 0, 0, 7.874015, 826.793584, -78.740052)" fill-opacity="1" fill="#000000" fill-rule="evenodd" stroke-linejoin="round" d="M 145.500166 370.499921 L 25.49998 370.499921 C 22.738925 370.499921 20.49991 368.262042 20.49991 365.499792 L 20.49991 345.499771 C 20.49991 342.738017 22.738925 340.500138 25.49998 340.500138 L 145.500166 340.500138 C 148.262213 340.500138 150.500235 342.738017 150.500235 345.499771 L 150.500235 365.499792 C 150.500235 368.262042 148.262213 370.499921 145.500166 370.499921 Z M 145.500166 370.499921 " stroke="#000000" stroke-width="1" stroke-opacity="1" stroke-miterlimit="1"/><path stroke-linecap="round" transform="matrix(7.871765, 0, 0, 7.874015, 826.793584, -78.740052)" fill-opacity="1" fill="#000000" fill-rule="evenodd" stroke-linejoin="round" d="M 135.500026 340.500138 L 35.500119 340.500138 C 32.739065 340.500138 30.50005 338.261763 30.50005 335.500009 C 30.50005 332.738255 32.739065 330.49988 35.500119 330.49988 L 135.500026 330.49988 C 138.262073 330.49988 140.500096 332.738255 140.500096 335.500009 C 140.500096 338.261763 138.262073 340.500138 135.500026 340.500138 Z M 135.500026 340.500138 " stroke="#000000" stroke-width="1" stroke-opacity="1" stroke-miterlimit="1"/><path stroke-linecap="round" transform="matrix(7.871765, 0, 0, 7.874015, 826.793584, -78.740052)" fill-opacity="1" fill="#000000" fill-rule="evenodd" stroke-linejoin="round" d="M 124.963952 340.500138 L 44.963828 340.500138 C 42.202774 340.500138 40.203937 338.261763 40.500189 335.500009 L 54.429026 205.500124 C 54.724782 202.737874 57.202983 200.499995 59.96503 200.499995 L 109.965232 200.499995 C 112.726783 200.499995 115.204983 202.737874 115.501236 205.500124 L 129.430072 335.500009 C 129.724836 338.261763 127.725999 340.500138 124.963952 340.500138 Z M 124.963952 340.500138 " stroke="#000000" stroke-width="1" stroke-opacity="1" stroke-miterlimit="1"/><path stroke-linecap="round" transform="matrix(7.871765, 0, 0, 7.874015, 826.793584, -78.740052)" fill-opacity="1" fill="#000000" fill-rule="evenodd" stroke-linejoin="round" d="M 135.500026 210.499757 L 35.500119 210.499757 C 32.739065 210.499757 30.50005 208.261878 30.50005 205.500124 L 30.50005 195.499866 C 30.50005 192.739104 32.739065 190.500233 35.500119 190.500233 L 135.500026 190.500233 C 138.262073 190.500233 140.500096 192.739104 140.500096 195.499866 L 140.500096 205.500124 C 140.500096 208.261878 138.262073 210.499757 135.500026 210.499757 Z M 135.500026 210.499757 " stroke="#000000" stroke-width="1" stroke-opacity="1" stroke-miterlimit="1"/><path stroke-linecap="round" transform="matrix(7.871765, 0, 0, 7.874015, 826.793584, -78.740052)" fill-opacity="1" fill="#000000" fill-rule="evenodd" stroke-linejoin="round" d="M 125.499887 190.500233 L 45.499763 190.500233 C 42.739204 190.500233 40.500189 188.260866 40.500189 185.500104 C 40.500189 182.738846 42.739204 180.499975 45.499763 180.499975 L 125.499887 180.499975 C 128.261934 180.499975 130.499956 182.738846 130.499956 185.500104 C 130.499956 188.260866 128.261934 190.500233 125.499887 190.500233 Z M 125.499887 190.500233 " stroke="#000000" stroke-width="1" stroke-opacity="1" stroke-miterlimit="1"/><path stroke-linecap="round" transform="matrix(7.871765, 0, 0, 7.874015, 826.793584, -78.740052)" fill-opacity="1" fill="#000000" fill-rule="evenodd" stroke-linejoin="round" d="M 115.500243 180.499975 L 55.499902 180.499975 C 52.738847 180.499975 50.499833 178.261104 50.499833 175.499846 C 50.499833 172.739084 52.738847 170.500213 55.499902 170.500213 L 115.500243 170.500213 C 118.261794 170.500213 120.499817 172.739084 120.499817 175.499846 C 120.499817 178.261104 118.261794 180.499975 115.500243 180.499975 Z M 115.500243 180.499975 " stroke="#000000" stroke-width="1" stroke-opacity="1" stroke-miterlimit="1"/><path stroke-linecap="round" transform="matrix(7.871765, 0, 0, 7.874015, 826.793584, -78.740052)" fill-opacity="1" fill="#000000" fill-rule="evenodd" stroke-linejoin="round" d="M 115.500243 170.500213 L 55.499902 170.500213 C 52.738847 170.500213 50.499833 168.260845 50.499833 165.500084 C 50.499833 162.738826 52.738847 160.499955 55.499902 160.499955 L 115.500243 160.499955 C 118.261794 160.499955 120.499817 162.738826 120.499817 165.500084 C 120.499817 168.260845 118.261794 170.500213 115.500243 170.500213 Z M 115.500243 170.500213 " stroke="#000000" stroke-width="1" stroke-opacity="1" stroke-miterlimit="1"/><path fill="#000000" d="M 1578.546875 712.597656 L 1421.113281 712.597656 C 1399.378906 712.597656 1381.753906 694.96875 1381.753906 673.226562 L 1381.753906 43.308594 C 1381.753906 21.566406 1399.378906 3.9375 1421.113281 3.9375 L 1578.546875 3.9375 C 1600.289062 3.9375 1617.90625 21.566406 1617.90625 43.308594 L 1617.90625 673.226562 C 1617.90625 694.96875 1600.289062 712.597656 1578.546875 712.597656 Z M 1578.546875 712.597656 " fill-opacity="1" fill-rule="evenodd"/><path stroke-linecap="round" transform="matrix(7.871765, 0, 0, 7.874015, 826.793584, -78.740052)" fill="none" stroke-linejoin="round" d="M 95.499964 100.499893 L 75.500181 100.499893 C 72.739127 100.499893 70.500112 98.261022 70.500112 95.499764 L 70.500112 15.500179 C 70.500112 12.737929 72.739127 10.50005 75.500181 10.50005 L 95.499964 10.50005 C 98.262011 10.50005 100.500034 12.737929 100.500034 15.500179 L 100.500034 95.499764 C 100.500034 98.261022 98.262011 100.499893 95.499964 100.499893 Z M 95.499964 100.499893 " stroke="#000000" stroke-width="1" stroke-opacity="1" stroke-miterlimit="1"/><path stroke-linecap="round" transform="matrix(7.871765, 0, 0, 7.874015, 826.793584, -78.740052)" fill-opacity="1" fill="#000000" fill-rule="evenodd" stroke-linejoin="round" d="M 125.499887 70.500111 L 45.499763 70.500111 C 42.739204 70.500111 40.500189 68.26124 40.500189 65.499982 L 40.500189 45.499961 C 40.500189 42.739199 42.739204 40.499832 45.499763 40.499832 L 125.499887 40.499832 C 128.261934 40.499832 130.499956 42.739199 130.499956 45.499961 L 130.499956 65.499982 C 130.499956 68.26124 128.261934 70.500111 125.499887 70.500111 Z M 125.499887 70.500111 " stroke="#000000" stroke-width="1" stroke-opacity="1" stroke-miterlimit="1"/><path stroke-linecap="round" transform="matrix(7.871765, 0, 0, 7.874015, 826.793584, -78.740052)" fill-opacity="1" fill="#000000" fill-rule="evenodd" stroke-linejoin="round" d="M 114.616944 160.499955 L 56.382209 160.499955 C 53.702041 160.499955 50.805017 158.261083 49.910801 155.499825 L 30.50005 95.499764 C 29.605833 92.739002 31.054841 90.500131 33.735009 90.500131 L 137.264144 90.500131 C 139.944808 90.500131 141.392824 92.739002 140.499103 95.499764 L 121.086863 155.499825 C 120.195128 158.261083 117.298105 160.499955 114.616944 160.499955 Z M 114.616944 160.499955 " stroke="#000000" stroke-width="1" stroke-opacity="1" stroke-miterlimit="1"/></svg>