<svg xmlns="http://www.w3.org/2000/svg" xmlns:xlink="http://www.w3.org/1999/xlink" width="4000" zoomAndPan="magnify" viewBox="0 0 3000 2999.999989" height="4000" preserveAspectRatio="xMidYMid meet" version="1.0"><path stroke-linecap="round" transform="matrix(-10.309278, 0, 0, 10.309278, 2381.958642, -103.092683)" fill-opacity="1" fill="currentColor" fill-rule="evenodd" stroke-linejoin="round" d="M 155.49988 300.499851 L 15.500075 300.499851 C 12.738985 300.499851 10.500028 298.26203 10.500028 295.500183 L 10.500028 285.500088 C 10.500028 282.737862 12.738985 280.500041 15.500075 280.500041 L 155.49988 280.500041 C 158.262106 280.500041 160.499927 282.737862 160.499927 285.500088 L 160.499927 295.500183 C 160.499927 298.26203 158.262106 300.499851 155.49988 300.499851 Z M 155.49988 300.499851 " stroke="#000000" stroke-width="1" stroke-opacity="1" stroke-miterlimit="1"/><path stroke-linecap="round" transform="matrix(-10.309278, 0, 0, 10.309278, 2381.958642, -103.092683)" fill-opacity="1" fill="currentColor" fill-rule="evenodd" stroke-linejoin="round" d="M 145.500164 280.500041 L 25.500169 280.500041 C 22.739079 280.500041 20.500122 278.261842 20.500122 275.499994 L 20.500122 255.500184 C 20.500122 252.737957 22.739079 250.500137 25.500169 250.500137 L 145.500164 250.500137 C 148.262012 250.500137 150.499833 252.737957 150.499833 255.500184 L 150.499833 275.499994 C 150.499833 278.261842 148.262012 280.500041 145.500164 280.500041 Z M 145.500164 280.500041 " stroke="#000000" stroke-width="1" stroke-opacity="1" stroke-miterlimit="1"/><path stroke-linecap="round" transform="matrix(-10.309278, 0, 0, 10.309278, 2381.958642, -103.092683)" fill-opacity="1" fill="currentColor" fill-rule="evenodd" stroke-linejoin="round" d="M 135.50007 230.499948 L 35.499885 230.499948 C 32.739174 230.499948 30.499838 228.262128 30.499838 225.499901 C 30.499838 222.738053 32.739174 220.499854 35.499885 220.499854 L 135.50007 220.499854 C 138.261918 220.499854 140.500117 222.738053 140.500117 225.499901 C 140.500117 228.262128 138.261918 230.499948 135.50007 230.499948 Z M 135.50007 230.499948 " stroke="#000000" stroke-width="1" stroke-opacity="1" stroke-miterlimit="1"/><path stroke-linecap="round" transform="matrix(-10.309278, 0, 0, 10.309278, 2381.958642, -103.092683)" fill-opacity="1" fill="currentColor" fill-rule="evenodd" stroke-linejoin="round" d="M 135.50007 220.499854 L 35.499885 220.499854 C 32.739174 220.499854 30.499838 218.262034 30.499838 215.500186 C 30.499838 212.737959 32.739174 210.500139 35.499885 210.500139 L 135.50007 210.500139 C 138.261918 210.500139 140.500117 212.737959 140.500117 215.500186 C 140.500117 218.262034 138.261918 220.499854 135.50007 220.499854 Z M 135.50007 220.499854 " stroke="#000000" stroke-width="1" stroke-opacity="1" stroke-miterlimit="1"/><path stroke-linecap="round" transform="matrix(-10.309278, 0, 0, 10.309278, 2381.958642, -103.092683)" fill-opacity="1" fill="currentColor" fill-rule="evenodd" stroke-linejoin="round" d="M 30.499838 210.500139 L 10.500028 210.500139 L 20.500122 90.500144 L 80.49993 10.500147 L 90.500025 10.500147 L 90.500025 20.499862 L 110.499834 30.499957 L 160.499927 80.500049 L 140.500117 110.499953 L 130.500023 110.499953 L 120.499929 100.499859 L 80.49993 110.499953 L 160.499927 200.500044 L 150.499833 210.500139 Z M 30.499838 210.500139 " stroke="#000000" stroke-width="1" stroke-opacity="1" stroke-miterlimit="1"/><path stroke-linecap="round" transform="matrix(-10.309278, 0, 0, 10.309278, 2381.958642, -103.092683)" fill-opacity="1" fill="currentColor" fill-rule="evenodd" stroke-linejoin="round" d="M 148.454875 250.500137 L 22.545079 250.500137 C 19.647962 250.500137 19.843099 248.261938 22.983095 245.50009 L 34.349904 235.499996 C 37.489143 232.738148 42.381959 230.499948 45.279835 230.499948 L 125.723152 230.499948 C 128.61989 230.499948 133.513086 232.738148 136.653082 235.499996 L 148.019133 245.50009 C 151.156098 248.261938 151.35313 250.500137 148.454875 250.500137 Z M 148.454875 250.500137 " stroke="#000000" stroke-width="1" stroke-opacity="1" stroke-miterlimit="1"/></svg>