<svg xmlns="http://www.w3.org/2000/svg" xmlns:xlink="http://www.w3.org/1999/xlink" width="4000" zoomAndPan="magnify" viewBox="0 0 3000 2999.999989" height="4000" preserveAspectRatio="xMidYMid meet" version="1.0"><defs><clipPath id="ba913f5032"><path d="M 574 2742 L 2426 2742 L 2426 2999.71875 L 574 2999.71875 Z M 574 2742 " clip-rule="nonzero"/></clipPath></defs><path stroke-linecap="round" transform="matrix(12.257929, 0, 0, 12.254139, 452.129889, 414.096009)" fill-opacity="1" fill="#000000" fill-rule="evenodd" stroke-linejoin="round" d="M 117.320027 23.679953 C 134.894111 41.254053 134.894111 69.746021 117.320027 87.320122 C 99.745943 104.893904 71.255137 104.893904 53.681053 87.320122 C 36.10697 69.746021 36.10697 41.254053 53.681053 23.679953 C 71.255137 6.105852 99.746899 6.105852 117.320027 23.679953 Z M 117.320027 23.679953 " stroke="#000000" stroke-width="1" stroke-opacity="1" stroke-miterlimit="1"/><path fill="#000000" d="M 2358.238281 2993.59375 L 642.128906 2993.59375 C 608.285156 2993.59375 580.839844 2966.167969 580.839844 2932.320312 L 580.839844 2809.78125 C 580.839844 2775.933594 608.285156 2748.507812 642.128906 2748.507812 L 2358.238281 2748.507812 C 2392.09375 2748.507812 2419.527344 2775.933594 2419.527344 2809.78125 L 2419.527344 2932.320312 C 2419.527344 2966.167969 2392.09375 2993.59375 2358.238281 2993.59375 Z M 2358.238281 2993.59375 " fill-opacity="1" fill-rule="evenodd"/><g clip-path="url(#ba913f5032)"><path stroke-linecap="round" transform="matrix(12.257929, 0, 0, 12.254139, 452.129889, 414.096009)" fill="none" stroke-linejoin="round" d="M 155.500034 210.500124 L 15.500091 210.500124 C 12.739123 210.500124 10.500139 208.262041 10.500139 205.4999 L 10.500139 195.50009 C 10.500139 192.737949 12.739123 190.499866 15.500091 190.499866 L 155.500034 190.499866 C 158.261958 190.499866 160.499986 192.737949 160.499986 195.50009 L 160.499986 205.4999 C 160.499986 208.262041 158.261958 210.500124 155.500034 210.500124 Z M 155.500034 210.500124 " stroke="#000000" stroke-width="1" stroke-opacity="1" stroke-miterlimit="1"/></g><path stroke-linecap="round" transform="matrix(12.257929, 0, 0, 12.254139, 452.129889, 414.096009)" fill-opacity="1" fill="#000000" fill-rule="evenodd" stroke-linejoin="round" d="M 145.500129 190.499866 L 25.499996 190.499866 C 22.739028 190.499866 20.500043 188.262102 20.500043 185.499961 L 20.500043 165.500022 C 20.500043 162.737881 22.739028 160.500117 25.499996 160.500117 L 145.500129 160.500117 C 148.262053 160.500117 150.500081 162.737881 150.500081 165.500022 L 150.500081 185.499961 C 150.500081 188.262102 148.262053 190.499866 145.500129 190.499866 Z M 145.500129 190.499866 " stroke="#000000" stroke-width="1" stroke-opacity="1" stroke-miterlimit="1"/><path stroke-linecap="round" transform="matrix(12.257929, 0, 0, 12.254139, 452.129889, 414.096009)" fill-opacity="1" fill="#000000" fill-rule="evenodd" stroke-linejoin="round" d="M 135.499905 160.500117 L 35.499901 160.500117 C 32.738933 160.500117 30.499948 158.262034 30.499948 155.499893 C 30.499948 152.738071 32.738933 150.499988 35.499901 150.499988 L 135.499905 150.499988 C 138.262148 150.499988 140.499858 152.738071 140.499858 155.499893 C 140.499858 158.262034 138.262148 160.500117 135.499905 160.500117 Z M 135.499905 160.500117 " stroke="#000000" stroke-width="1" stroke-opacity="1" stroke-miterlimit="1"/><path stroke-linecap="round" transform="matrix(12.257929, 0, 0, 12.254139, 452.129889, 414.096009)" fill-opacity="1" fill="#000000" fill-rule="evenodd" stroke-linejoin="round" d="M 135.499905 100.49998 L 35.499901 100.49998 C 32.738933 100.49998 30.499948 98.260941 30.499948 95.500075 C 30.499948 92.738891 32.738933 90.499851 35.499901 90.499851 L 135.499905 90.499851 C 138.262148 90.499851 140.499858 92.738891 140.499858 95.500075 C 140.499858 98.260941 138.262148 100.49998 135.499905 100.49998 Z M 135.499905 100.49998 " stroke="#000000" stroke-width="1" stroke-opacity="1" stroke-miterlimit="1"/><path stroke-linecap="round" transform="matrix(12.257929, 0, 0, 12.254139, 452.129889, 414.096009)" fill-opacity="1" fill="#000000" fill-rule="evenodd" stroke-linejoin="round" d="M 124.428946 160.500117 L 44.42907 160.500117 C 41.667146 160.500117 39.908081 158.262034 40.499853 155.499893 L 53.356965 95.500075 C 53.949056 92.738891 56.667003 90.499851 59.428927 90.499851 L 109.429089 90.499851 C 112.190057 90.499851 114.908004 92.738891 115.500096 95.500075 L 128.356889 155.499893 C 128.94898 158.262034 127.188958 160.500117 124.428946 160.500117 Z M 124.428946 160.500117 " stroke="#000000" stroke-width="1" stroke-opacity="1" stroke-miterlimit="1"/></svg>