<svg xmlns="http://www.w3.org/2000/svg" xmlns:xlink="http://www.w3.org/1999/xlink" width="4000" zoomAndPan="magnify" viewBox="0 0 3000 2999.999989" height="4000" preserveAspectRatio="xMidYMid meet" version="1.0"><path stroke-linecap="round" transform="matrix(9.347655, 0, 0, 9.345794, 700.911838, -93.457842)" fill-opacity="1" fill="#000000" fill-rule="evenodd" stroke-linejoin="round" d="M 155.500055 330.500105 L 15.500032 330.500105 C 12.739062 330.500105 10.500031 328.261882 10.500031 325.499944 L 10.500031 315.500042 C 10.500031 312.738104 12.739062 310.499882 15.500032 310.499882 L 155.500055 310.499882 C 158.261861 310.499882 160.500056 312.738104 160.500056 315.500042 L 160.500056 325.499944 C 160.500056 328.261882 158.261861 330.500105 155.500055 330.500105 Z M 155.500055 330.500105 " stroke="#000000" stroke-width="1" stroke-opacity="1" stroke-miterlimit="1"/><path stroke-linecap="round" transform="matrix(9.347655, 0, 0, 9.345794, 700.911838, -93.457842)" fill-opacity="1" fill="#000000" fill-rule="evenodd" stroke-linejoin="round" d="M 145.500053 310.499882 L 25.500033 310.499882 C 22.739063 310.499882 20.500032 308.262077 20.500032 305.500139 L 20.500032 285.499916 C 20.500032 282.737979 22.739063 280.500174 25.500033 280.500174 L 145.500053 280.500174 C 148.261859 280.500174 150.500054 282.737979 150.500054 285.499916 L 150.500054 305.500139 C 150.500054 308.262077 148.261859 310.499882 145.500053 310.499882 Z M 145.500053 310.499882 " stroke="#000000" stroke-width="1" stroke-opacity="1" stroke-miterlimit="1"/><path stroke-linecap="round" transform="matrix(9.347655, 0, 0, 9.345794, 700.911838, -93.457842)" fill-opacity="1" fill="#000000" fill-rule="evenodd" stroke-linejoin="round" d="M 135.500052 280.500174 L 35.500035 280.500174 C 32.739065 280.500174 30.500034 278.261951 30.500034 275.500014 C 30.500034 272.738076 32.739065 270.499854 35.500035 270.499854 L 135.500052 270.499854 C 138.261857 270.499854 140.500052 272.738076 140.500052 275.500014 C 140.500052 278.261951 138.261857 280.500174 135.500052 280.500174 Z M 135.500052 280.500174 " stroke="#000000" stroke-width="1" stroke-opacity="1" stroke-miterlimit="1"/><path stroke-linecap="round" transform="matrix(9.347655, 0, 0, 9.345794, 700.911838, -93.457842)" fill-opacity="1" fill="#000000" fill-rule="evenodd" stroke-linejoin="round" d="M 124.963903 280.500174 L 44.963889 280.500174 C 42.202919 280.500174 40.204173 278.261951 40.500036 275.500014 L 54.428998 145.500027 C 54.724861 142.738925 57.202922 140.499867 59.965146 140.499867 L 109.965154 140.499867 C 112.72696 140.499867 115.205021 142.738925 115.500884 145.500027 L 129.429846 275.500014 C 129.724873 278.261951 127.726126 280.500174 124.963903 280.500174 Z M 124.963903 280.500174 " stroke="#000000" stroke-width="1" stroke-opacity="1" stroke-miterlimit="1"/><path stroke-linecap="round" transform="matrix(9.347655, 0, 0, 9.345794, 700.911838, -93.457842)" fill-opacity="1" fill="#000000" fill-rule="evenodd" stroke-linejoin="round" d="M 135.500052 150.500187 L 35.500035 150.500187 C 32.739065 150.500187 30.500034 148.261129 30.500034 145.500027 L 30.500034 135.500124 C 30.500034 132.739023 32.739065 130.499964 35.500035 130.499964 L 135.500052 130.499964 C 138.261857 130.499964 140.500052 132.739023 140.500052 135.500124 L 140.500052 145.500027 C 140.500052 148.261129 138.261857 150.500187 135.500052 150.500187 Z M 135.500052 150.500187 " stroke="#000000" stroke-width="1" stroke-opacity="1" stroke-miterlimit="1"/><path stroke-linecap="round" transform="matrix(9.347655, 0, 0, 9.345794, 700.911838, -93.457842)" fill-opacity="1" fill="#000000" fill-rule="evenodd" stroke-linejoin="round" d="M 125.50005 130.499964 L 45.500037 130.499964 C 42.739067 130.499964 40.500036 128.260906 40.500036 125.499804 C 40.500036 122.73912 42.739067 120.500062 45.500037 120.500062 L 125.50005 120.500062 C 128.261856 120.500062 130.500051 122.73912 130.500051 125.499804 C 130.500051 128.260906 128.261856 130.499964 125.50005 130.499964 Z M 125.50005 130.499964 " stroke="#000000" stroke-width="1" stroke-opacity="1" stroke-miterlimit="1"/><path stroke-linecap="round" transform="matrix(9.347655, 0, 0, 9.345794, 700.911838, -93.457842)" fill-opacity="1" fill="#000000" fill-rule="evenodd" stroke-linejoin="round" d="M 115.500048 120.500062 L 55.500038 120.500062 C 52.739068 120.500062 50.500037 118.261003 50.500037 115.499901 C 50.500037 112.7388 52.739068 110.500159 55.500038 110.500159 L 115.500048 110.500159 C 118.261854 110.500159 120.500049 112.7388 120.500049 115.499901 C 120.500049 118.261003 118.261854 120.500062 115.500048 120.500062 Z M 115.500048 120.500062 " stroke="#000000" stroke-width="1" stroke-opacity="1" stroke-miterlimit="1"/><path stroke-linecap="round" transform="matrix(9.347655, 0, 0, 9.345794, 700.911838, -93.457842)" fill-opacity="1" fill="#000000" fill-rule="evenodd" stroke-linejoin="round" d="M 115.500048 110.500159 L 55.500038 110.500159 C 52.739068 110.500159 50.500037 108.261101 50.500037 105.499999 C 50.500037 102.738897 52.739068 100.499839 55.500038 100.499839 L 115.500048 100.499839 C 118.261854 100.499839 120.500049 102.738897 120.500049 105.499999 C 120.500049 108.261101 118.261854 110.500159 115.500048 110.500159 Z M 115.500048 110.500159 " stroke="#000000" stroke-width="1" stroke-opacity="1" stroke-miterlimit="1"/><path stroke-linecap="round" transform="matrix(9.347655, 0, 0, 9.345794, 700.911838, -93.457842)" fill-opacity="1" fill="#000000" fill-rule="evenodd" stroke-linejoin="round" d="M 95.500045 40.500006 L 75.500042 40.500006 C 72.739072 40.500006 70.500041 38.260947 70.500041 35.499845 L 70.500041 15.50004 C 70.500041 12.738939 72.739072 10.49988 75.500042 10.49988 L 95.500045 10.49988 C 98.261851 10.49988 100.500046 12.738939 100.500046 15.50004 L 100.500046 35.499845 C 100.500046 38.260947 98.261851 40.500006 95.500045 40.500006 Z M 95.500045 40.500006 " stroke="#000000" stroke-width="1" stroke-opacity="1" stroke-miterlimit="1"/><path stroke-linecap="round" transform="matrix(9.347655, 0, 0, 9.345794, 700.911838, -93.457842)" fill-opacity="1" fill="#000000" fill-rule="evenodd" stroke-linejoin="round" d="M 57.166984 40.500006 L 43.833091 40.500006 C 41.991887 40.500006 40.500036 38.262201 40.500036 35.499845 L 40.500036 25.499943 C 40.500036 22.738841 41.991887 20.5002 43.833091 20.5002 L 57.166148 20.5002 C 59.006934 20.5002 60.499203 22.738841 60.499203 25.499943 L 60.499203 35.499845 C 60.500039 38.262201 59.008188 40.500006 57.166984 40.500006 Z M 57.166984 40.500006 " stroke="#000000" stroke-width="1" stroke-opacity="1" stroke-miterlimit="1"/><path stroke-linecap="round" transform="matrix(9.347655, 0, 0, 9.345794, 700.911838, -93.457842)" fill-opacity="1" fill="#000000" fill-rule="evenodd" stroke-linejoin="round" d="M 127.169921 40.500006 L 113.836028 40.500006 C 111.994824 40.500006 110.502973 38.262201 110.502973 35.499845 L 110.502973 25.499943 C 110.502973 22.738841 111.994824 20.5002 113.836028 20.5002 L 127.169921 20.5002 C 129.011124 20.5002 130.502976 22.738841 130.502976 25.499943 L 130.502976 35.499845 C 130.502976 38.262201 129.011124 40.500006 127.169921 40.500006 Z M 127.169921 40.500006 " stroke="#000000" stroke-width="1" stroke-opacity="1" stroke-miterlimit="1"/><path stroke-linecap="round" transform="matrix(9.347655, 0, 0, 9.345794, 700.911838, -93.457842)" fill-opacity="1" fill="#000000" fill-rule="evenodd" stroke-linejoin="round" d="M 114.617056 100.499839 L 56.382195 100.499839 C 53.701877 100.499839 50.805094 98.261198 49.910819 95.500096 L 30.500034 35.499845 C 29.606177 32.737908 31.054986 30.500103 33.734886 30.500103 L 137.263947 30.500103 C 139.9451 30.500103 141.393074 32.737908 140.498799 35.499845 L 121.087178 95.500096 C 120.194993 98.261198 117.297792 100.499839 114.617056 100.499839 Z M 114.617056 100.499839 " stroke="#000000" stroke-width="1" stroke-opacity="1" stroke-miterlimit="1"/></svg>