<svg xmlns="http://www.w3.org/2000/svg" xmlns:xlink="http://www.w3.org/1999/xlink" width="4000" zoomAndPan="magnify" viewBox="0 0 3000 2999.999989" height="4000" preserveAspectRatio="xMidYMid meet" version="1.0"><path stroke-linecap="round" transform="matrix(-12.447745, 0, 0, 12.448133, 2564.306385, -124.481218)" fill-opacity="1" fill="#000000" fill-rule="evenodd" stroke-linejoin="round" d="M 55.499959 40.499985 L 35.500102 40.499985 C 32.738871 40.499985 30.500138 38.261007 30.500138 35.499862 L 30.500138 15.5 C 30.500138 12.738856 32.738871 10.499878 35.500102 10.499878 L 55.499959 10.499878 C 58.260875 10.499878 60.499923 12.738856 60.499923 15.5 L 60.499923 35.499862 C 60.499923 38.261007 58.260875 40.499985 55.499959 40.499985 Z M 55.499959 40.499985 " stroke="#000000" stroke-width="1" stroke-opacity="1" stroke-miterlimit="1"/><path stroke-linecap="round" transform="matrix(-12.447745, 0, 0, 12.448133, 2564.306385, -124.481218)" fill-opacity="1" fill="#000000" fill-rule="evenodd" stroke-linejoin="round" d="M 95.499986 40.499985 L 75.500129 40.499985 C 72.738899 40.499985 70.499851 38.261007 70.499851 35.499862 L 70.499851 15.5 C 70.499851 12.738856 72.738899 10.499878 75.500129 10.499878 L 95.499986 10.499878 C 98.261844 10.499878 100.49995 12.738856 100.49995 15.5 L 100.49995 35.499862 C 100.49995 38.261007 98.261844 40.499985 95.499986 40.499985 Z M 95.499986 40.499985 " stroke="#000000" stroke-width="1" stroke-opacity="1" stroke-miterlimit="1"/><path stroke-linecap="round" transform="matrix(-12.447745, 0, 0, 12.448133, 2564.306385, -124.481218)" fill-opacity="1" fill="#000000" fill-rule="evenodd" stroke-linejoin="round" d="M 135.500014 40.499985 L 115.500157 40.499985 C 112.737985 40.499985 110.499879 38.261007 110.499879 35.499862 L 110.499879 15.5 C 110.499879 12.738856 112.737985 10.499878 115.500157 10.499878 L 135.500014 10.499878 C 138.261872 10.499878 140.499978 12.738856 140.499978 15.5 L 140.499978 35.499862 C 140.499978 38.261007 138.261872 40.499985 135.500014 40.499985 Z M 135.500014 40.499985 " stroke="#000000" stroke-width="1" stroke-opacity="1" stroke-miterlimit="1"/><path stroke-linecap="round" transform="matrix(-12.447745, 0, 0, 12.448133, 2564.306385, -124.481218)" fill-opacity="1" fill="#000000" fill-rule="evenodd" stroke-linejoin="round" d="M 155.499871 250.500106 L 15.499931 250.500106 C 12.739015 250.500106 10.499967 248.262069 10.499967 245.499983 L 10.499967 235.500052 C 10.499967 232.737966 12.739015 230.49993 15.499931 230.49993 L 155.499871 230.49993 C 158.262042 230.49993 160.500149 232.737966 160.500149 235.500052 L 160.500149 245.499983 C 160.500149 248.262069 158.262042 250.500106 155.499871 250.500106 Z M 155.499871 250.500106 " stroke="#000000" stroke-width="1" stroke-opacity="1" stroke-miterlimit="1"/><path stroke-linecap="round" transform="matrix(-12.447745, 0, 0, 12.448133, 2564.306385, -124.481218)" fill-opacity="1" fill="#000000" fill-rule="evenodd" stroke-linejoin="round" d="M 145.499942 230.49993 L 25.49986 230.49993 C 22.738943 230.49993 20.499895 228.261893 20.499895 225.500121 L 20.499895 205.499945 C 20.499895 202.737859 22.738943 200.500137 25.49986 200.500137 L 145.499942 200.500137 C 148.262114 200.500137 150.499906 202.737859 150.499906 205.499945 L 150.499906 225.500121 C 150.499906 228.261893 148.262114 230.49993 145.499942 230.49993 Z M 145.499942 230.49993 " stroke="#000000" stroke-width="1" stroke-opacity="1" stroke-miterlimit="1"/><path stroke-linecap="round" transform="matrix(-12.447745, 0, 0, 12.448133, 2564.306385, -124.481218)" fill-opacity="1" fill="#000000" fill-rule="evenodd" stroke-linejoin="round" d="M 135.500014 200.500137 L 35.500102 200.500137 C 32.738871 200.500137 30.500138 198.2621 30.500138 195.500014 C 30.500138 192.737928 32.738871 190.499892 35.500102 190.499892 L 135.500014 190.499892 C 138.261872 190.499892 140.499978 192.737928 140.499978 195.500014 C 140.499978 198.2621 138.261872 200.500137 135.500014 200.500137 Z M 135.500014 200.500137 " stroke="#000000" stroke-width="1" stroke-opacity="1" stroke-miterlimit="1"/><path stroke-linecap="round" transform="matrix(-12.447745, 0, 0, 12.448133, 2564.306385, -124.481218)" fill-opacity="1" fill="#000000" fill-rule="evenodd" stroke-linejoin="round" d="M 135.500014 90.499954 L 35.500102 90.499954 C 32.738871 90.499954 30.500138 88.260976 30.500138 85.500145 L 30.500138 75.4999 C 30.500138 72.73907 32.738871 70.500092 35.500102 70.500092 L 135.500014 70.500092 C 138.261872 70.500092 140.499978 72.73907 140.499978 75.4999 L 140.499978 85.500145 C 140.499978 88.260976 138.261872 90.499954 135.500014 90.499954 Z M 135.500014 90.499954 " stroke="#000000" stroke-width="1" stroke-opacity="1" stroke-miterlimit="1"/><path stroke-linecap="round" transform="matrix(-12.447745, 0, 0, 12.448133, 2564.306385, -124.481218)" fill-opacity="1" fill="#000000" fill-rule="evenodd" stroke-linejoin="round" d="M 124.874972 200.500137 L 44.874917 200.500137 C 42.114 200.500137 40.154873 198.2621 40.500066 195.500014 L 54.250046 85.500145 C 54.594925 82.739001 57.113893 80.500023 59.875124 80.500023 L 109.875079 80.500023 C 112.636938 80.500023 115.154964 82.739001 115.500157 85.500145 L 129.250137 195.500014 C 129.595016 198.2621 127.637144 200.500137 124.874972 200.500137 Z M 124.874972 200.500137 " stroke="#000000" stroke-width="1" stroke-opacity="1" stroke-miterlimit="1"/><path stroke-linecap="round" transform="matrix(-12.447745, 0, 0, 12.448133, 2564.306385, -124.481218)" fill-opacity="1" fill="#000000" fill-rule="evenodd" stroke-linejoin="round" d="M 135.500014 70.500092 L 35.500102 70.500092 C 32.738871 70.500092 30.500138 68.261114 30.500138 65.499969 L 30.500138 35.499862 C 30.500138 32.739032 32.738871 30.500054 35.500102 30.500054 L 135.500014 30.500054 C 138.261872 30.500054 140.499978 32.739032 140.499978 35.499862 L 140.499978 65.499969 C 140.499978 68.261114 138.261872 70.500092 135.500014 70.500092 Z M 135.500014 70.500092 " stroke="#000000" stroke-width="1" stroke-opacity="1" stroke-miterlimit="1"/></svg>